<svg width="96" height="27" viewBox="0 0 96 27" fill="none" xmlns="http://www.w3.org/2000/svg">
<path d="M0.432 0.799998H4.428L7.02 20.348H7.092L9.684 0.799998H13.32L9.504 26H4.248L0.432 0.799998ZM20.8758 26.36C18.9318 26.36 17.4438 25.808 16.4118 24.704C15.3798 23.6 14.8638 22.04 14.8638 20.024V6.776C14.8638 4.76 15.3798 3.2 16.4118 2.096C17.4438 0.991999 18.9318 0.439999 20.8758 0.439999C22.8198 0.439999 24.3078 0.991999 25.3398 2.096C26.3718 3.2 26.8878 4.76 26.8878 6.776V20.024C26.8878 22.04 26.3718 23.6 25.3398 24.704C24.3078 25.808 22.8198 26.36 20.8758 26.36ZM20.8758 22.76C22.2438 22.76 22.9278 21.932 22.9278 20.276V6.524C22.9278 4.868 22.2438 4.04 20.8758 4.04C19.5078 4.04 18.8238 4.868 18.8238 6.524V20.276C18.8238 21.932 19.5078 22.76 20.8758 22.76ZM32.569 15.272L27.781 0.799998H31.993L34.693 10.052H34.765L37.465 0.799998H41.317L36.529 15.272V26H32.569V15.272ZM44.5087 0.799998H49.8727L53.9767 26H50.0167L49.2967 20.996V21.068H44.7967L44.0767 26H40.4047L44.5087 0.799998ZM48.8287 17.648L47.0647 5.192H46.9927L45.2647 17.648H48.8287ZM61.4436 26.36C59.5236 26.36 58.0596 25.82 57.0516 24.74C56.0436 23.636 55.5396 22.064 55.5396 20.024V6.776C55.5396 4.736 56.0436 3.176 57.0516 2.096C58.0596 0.991999 59.5236 0.439999 61.4436 0.439999C63.3636 0.439999 64.8276 0.991999 65.8356 2.096C66.8436 3.176 67.3476 4.736 67.3476 6.776V8.936H63.6036V6.524C63.6036 4.868 62.9196 4.04 61.5516 4.04C60.1836 4.04 59.4996 4.868 59.4996 6.524V20.312C59.4996 21.944 60.1836 22.76 61.5516 22.76C62.9196 22.76 63.6036 21.944 63.6036 20.312V15.38H61.6236V11.78H67.3476V20.024C67.3476 22.064 66.8436 23.636 65.8356 24.74C64.8276 25.82 63.3636 26.36 61.4436 26.36ZM69.8901 0.799998H80.6901V4.4H73.8501V11.06H79.2861V14.66H73.8501V22.4H80.6901V26H69.8901V0.799998ZM82.9682 0.799998H88.8362C90.8762 0.799998 92.3642 1.28 93.3002 2.24C94.2362 3.176 94.7042 4.628 94.7042 6.596V8.144C94.7042 10.76 93.8402 12.416 92.1122 13.112V13.184C93.0722 13.472 93.7442 14.06 94.1282 14.948C94.5362 15.836 94.7402 17.024 94.7402 18.512V22.94C94.7402 23.66 94.7642 24.248 94.8122 24.704C94.8602 25.136 94.9802 25.568 95.1722 26H91.1402C90.9962 25.592 90.9002 25.208 90.8522 24.848C90.8042 24.488 90.7802 23.84 90.7802 22.904V18.296C90.7802 17.144 90.5882 16.34 90.2042 15.884C89.8442 15.428 89.2082 15.2 88.2962 15.2H86.9282V26H82.9682V0.799998ZM88.3682 11.6C89.1602 11.6 89.7482 11.396 90.1322 10.988C90.5402 10.58 90.7442 9.896 90.7442 8.936V6.992C90.7442 6.08 90.5762 5.42 90.2402 5.012C89.9282 4.604 89.4242 4.4 88.7282 4.4H86.9282V11.6H88.3682Z" fill="black"/>
</svg>
